<svg width="14" height="13" viewBox="0 0 14 13" fill="none" xmlns="http://www.w3.org/2000/svg">
<g clip-path="url(#clip0_34717_10151)">
<path d="M7.95077 5.73984C7.5127 5.30488 6.91866 5.06055 6.29926 5.06055C5.67987 5.06055 5.08582 5.30488 4.64775 5.73984L2.99571 7.38027C2.55763 7.8154 2.31152 8.40558 2.31152 9.02096C2.31152 9.63634 2.55763 10.2265 2.99571 10.6617C3.43379 11.0968 4.02795 11.3413 4.64749 11.3413C5.26702 11.3413 5.86118 11.0968 6.29926 10.6617L7.12502 9.84144" stroke="black" stroke-width="1.58333" stroke-linecap="round" stroke-linejoin="round"/>
<path d="M6.29883 7.38072C6.7369 7.81567 7.33094 8.06001 7.95034 8.06001C8.56973 8.06001 9.16377 7.81567 9.60184 7.38072L11.2539 5.74029C11.692 5.30515 11.9381 4.71497 11.9381 4.09959C11.9381 3.48421 11.692 2.89403 11.2539 2.4589C10.8158 2.02376 10.2216 1.7793 9.60211 1.7793C8.98257 1.7793 8.38841 2.02376 7.95034 2.4589L7.12458 3.27911" stroke="black" stroke-width="1.58333" stroke-linecap="round" stroke-linejoin="round"/>
</g>
<defs>
<clipPath id="clip0_34717_10151">
<rect width="12.8356" height="12.7495" fill="white" transform="translate(0.707031 0.185547)"/>
</clipPath>
</defs>
</svg>
